<svg id="Layer_1" data-name="Layer 1" xmlns="http://www.w3.org/2000/svg" viewBox="0 0 636.37 342"><defs><style>.cls-1{fill:#f1d60e;stroke:#f1d60e;stroke-miterlimit:8.3;stroke-width:5.56px;}</style></defs><title>CAT Logo Vector</title><path d="M350.74,369.44c12.93,26.45,9.59,59.56,10.21,91H291.61c-1-22.08,3.49-55.26-5.83-65.82-3.33-5.84-9.79-7.06-16-6.25-6.45.63-13.33,3.55-15.62,10-2.76,5.26-2.7,22.49-2.92,34.15l.85,163.91c.61,6.87,3.94,14.56,11,16.84,6.25,1.68,15,2.1,20.21-1.87,7.9-6.23,8.74-15.82,9.36-25.17v-54H362c-.62,22.71,1.67,46.66-1.88,68.33L267.45,671c-28.52-.64-56.85-8.13-72.06-34.57-12.07-22.29-13.95-48.54-13.52-76l.2-139.33c1.46-34.78,12.29-73.73,48.94-86,28.74-9,67.47-8.76,93.5,5.6,11,6.26,21.46,17.51,26.23,28.75" transform="translate(-181.81 -329)"/><path d="M759.76,397.75H704.17l-.22,268H691.66l-57.25-45.38V398l-54.36-.22V337H759.76Z" transform="translate(-181.81 -329)"/><path d="M488.62,396.53h-1.26L470.5,487.32l36.85.42ZM594.4,587.68,488.82,502.93l-38.11,28.52-66.65,50.63L440.51,337h98.91Z" transform="translate(-181.81 -329)"/><path class="cls-1" d="M308.28,665.77l179.3-137.44L659,665.58Z" transform="translate(-181.81 -329)"/><path d="M794.36,378.8A23.24,23.24,0,0,1,778,372.43,20.24,20.24,0,0,1,778,342a25.08,25.08,0,0,1,33.27,0,20.37,20.37,0,0,1,0,30.54A24.36,24.36,0,0,1,794.36,378.8Zm0-3.07c6.57,0,11.85-2.22,15.7-6.65a17.09,17.09,0,0,0,0-23.71c-3.85-4.44-9-6.66-15.39-6.66s-11.55,2.22-15.46,6.66a17.64,17.64,0,0,0-4.71,11.88,17.22,17.22,0,0,0,5.83,13A20.05,20.05,0,0,0,794.36,375.73ZM786.91,369V345.65h8c2.54,0,4.46.45,5.77,1.42a5,5,0,0,1,1.92,4.32,6.83,6.83,0,0,1-1.12,3.81,9.31,9.31,0,0,1-3.35,2.9l7.7,10.86h-4.78l-6.89-9.72H791V369Zm3.78-12.62h1.18A9.38,9.38,0,0,0,797,355.2a4,4,0,0,0,1.68-3.47,3.05,3.05,0,0,0-1.43-2.73,7.76,7.76,0,0,0-4.22-.91h-2.3Z" transform="translate(-181.81 -329)"/></svg>