<svg width="113" height="92" viewBox="0 0 113 92" fill="none" xmlns="http://www.w3.org/2000/svg">
<path d="M45.95 5.4C45.1167 4.98333 44 4.775 42.6 4.775C40.4333 4.775 39.35 5.575 39.35 7.175C39.35 7.94167 40.025 8.75 41.375 9.6C42.4917 10.3167 43.3667 10.8833 44 11.3C44.6333 11.7167 45.0167 11.9917 45.15 12.125C46.5 13.3083 47.175 14.675 47.175 16.225C47.175 17.9583 46.5083 19.3167 45.175 20.3C44.0417 21.1333 42.6833 21.55 41.1 21.55C39.5167 21.55 38.0667 21.2583 36.75 20.675L37.075 17.9C38.325 18.6 39.7 18.95 41.2 18.95C43.4167 18.95 44.525 17.975 44.525 16.025C44.525 15.2583 43.85 14.425 42.5 13.525C41.2833 12.7083 40.3583 12.0833 39.725 11.65C39.1083 11.2167 38.775 10.9833 38.725 10.95C37.3917 9.8 36.725 8.54167 36.725 7.175C36.725 5.625 37.325 4.38333 38.525 3.45C39.6083 2.61667 40.975 2.2 42.625 2.2C43.9917 2.2 45.25 2.41667 46.4 2.85L45.95 5.4ZM64.098 20.625C63.1647 21.1417 61.7064 21.4 59.723 21.4C56.873 21.4 54.598 20.5333 52.898 18.8C51.2147 17.0333 50.373 14.7083 50.373 11.825C50.373 8.975 51.2314 6.66667 52.948 4.9C54.6647 3.13333 56.923 2.25 59.723 2.25C61.7564 2.25 63.2147 2.475 64.098 2.925L63.898 5.475C62.7647 5.025 61.373 4.8 59.723 4.8C57.7064 4.8 56.098 5.45 54.898 6.75C53.698 8.05 53.098 9.74167 53.098 11.825C53.098 13.9917 53.6814 15.6917 54.848 16.925C56.0314 18.2083 57.6564 18.85 59.723 18.85C61.473 18.85 62.8647 18.575 63.898 18.025L64.098 20.625ZM82.2621 20.625C81.3288 21.1417 79.8704 21.4 77.8871 21.4C75.0371 21.4 72.7621 20.5333 71.0621 18.8C69.3788 17.0333 68.5371 14.7083 68.5371 11.825C68.5371 8.975 69.3954 6.66667 71.1121 4.9C72.8288 3.13333 75.0871 2.25 77.8871 2.25C79.9204 2.25 81.3788 2.475 82.2621 2.925L82.0621 5.475C80.9288 5.025 79.5371 4.8 77.8871 4.8C75.8704 4.8 74.2621 5.45 73.0621 6.75C71.8621 8.05 71.2621 9.74167 71.2621 11.825C71.2621 13.9917 71.8454 15.6917 73.0121 16.925C74.1954 18.2083 75.8204 18.85 77.8871 18.85C79.6371 18.85 81.0288 18.575 82.0621 18.025L82.2621 20.625Z" fill="black"/>
<rect y="27" width="92" height="20" fill="#E6C61F"/>
<path d="M8.216 60.676H6.864V53.188H2.665V60.676H1.326V51.927H8.216V60.676ZM15.47 57.361C15.47 56.7543 15.3183 56.2343 15.015 55.801C14.6857 55.333 14.2567 55.099 13.728 55.099C13.1907 55.099 12.7617 55.333 12.441 55.801C12.1377 56.2343 11.986 56.7543 11.986 57.361C11.986 57.9763 12.142 58.4963 12.454 58.921C12.7747 59.389 13.1993 59.623 13.728 59.623C14.248 59.623 14.6727 59.389 15.002 58.921C15.314 58.4963 15.47 57.9763 15.47 57.361ZM16.757 57.374C16.757 58.3013 16.4927 59.0943 15.964 59.753C15.3747 60.481 14.6293 60.845 13.728 60.845C12.8007 60.845 12.051 60.4853 11.479 59.766C10.9503 59.1073 10.686 58.31 10.686 57.374C10.686 56.4467 10.946 55.6493 11.466 54.982C12.038 54.254 12.792 53.89 13.728 53.89C14.6553 53.89 15.405 54.2583 15.977 54.995C16.497 55.6623 16.757 56.4553 16.757 57.374ZM23.426 59.545V55.346H21.567C21.5497 55.684 21.5107 56.0307 21.45 56.386C21.398 56.7413 21.3243 57.114 21.229 57.504C21.1163 57.92 20.9907 58.297 20.852 58.635C20.7133 58.973 20.5617 59.2763 20.397 59.545H23.426ZM26.026 62.353H25.09C24.7173 61.2783 24.2407 60.741 23.66 60.741H20.085C19.747 60.741 19.513 60.897 19.383 61.209C19.2877 61.417 19.2227 61.7983 19.188 62.353H18.096L18.187 60.351C18.9323 59.6837 19.474 58.8083 19.812 57.725C20.124 56.7543 20.28 55.5323 20.28 54.059H24.739V59.649C24.739 59.7877 24.8343 59.909 25.025 60.013C25.2243 60.1257 25.4973 60.182 25.844 60.182L26.026 62.353ZM33.1672 60.676H31.9192V57.855H29.0722V60.676H27.8242V54.059H29.0722V56.646H31.9192V54.059H33.1672V60.676ZM41.7163 60.676H40.4423V56.607L37.4393 59.935V60.676H36.1653V54.059H37.4393V58.102L40.4423 54.787V54.059H41.7163V60.676ZM51.2999 60.676H50.0259V56.75L48.5049 60.676H47.5169L45.9959 56.75V60.676H44.7219V54.059H46.2299L48.0109 58.544L49.7659 54.059H51.2999V60.676ZM58.076 56.633C58.024 56.191 57.8723 55.8313 57.621 55.554C57.3436 55.2507 57.0056 55.099 56.607 55.099C56.1996 55.099 55.8573 55.2507 55.58 55.554C55.32 55.8313 55.151 56.191 55.073 56.633H58.076ZM59.389 57.777H55.047C55.0816 58.3057 55.2333 58.7433 55.502 59.09C55.7966 59.454 56.178 59.636 56.646 59.636C57.4953 59.636 57.9806 59.2373 58.102 58.44H59.35C59.2286 59.2373 58.908 59.8483 58.388 60.273C57.894 60.663 57.296 60.858 56.594 60.858C56.204 60.858 55.827 60.7757 55.463 60.611C55.047 60.4377 54.722 60.208 54.488 59.922C54.2626 59.636 54.0806 59.233 53.942 58.713C53.8293 58.271 53.773 57.8377 53.773 57.413C53.773 56.4337 53.9853 55.6277 54.41 54.995C54.9126 54.2583 55.6493 53.89 56.62 53.89C57.53 53.89 58.2406 54.2497 58.752 54.969C59.1766 55.5757 59.389 56.3427 59.389 57.27V57.777ZM68.5021 60.676H67.2281V56.75L65.7071 60.676H64.7191L63.1981 56.75V60.676H61.9241V54.059H63.4321L65.2131 58.544L66.9681 54.059H68.5021V60.676ZM26.143 72.154C26.143 71.2527 25.5147 70.802 24.258 70.802H22.165V73.376H24.206C24.7867 73.376 25.22 73.3153 25.506 73.194C25.9307 73.012 26.143 72.6653 26.143 72.154ZM25.766 68.371C25.766 67.8857 25.5493 67.5563 25.116 67.383C24.856 67.279 24.427 67.227 23.829 67.227H22.165V69.515H23.751C24.3837 69.515 24.8257 69.4717 25.077 69.385C25.5363 69.2117 25.766 68.8737 25.766 68.371ZM27.521 72.18C27.521 72.4313 27.482 72.674 27.404 72.908C27.3347 73.142 27.235 73.3587 27.105 73.558C26.975 73.7573 26.8147 73.935 26.624 74.091C26.442 74.2557 26.234 74.3813 26 74.468C25.688 74.6067 24.882 74.676 23.582 74.676H20.826V65.927H23.946C24.206 65.927 24.4313 65.9357 24.622 65.953C24.8213 65.9617 24.9817 65.9747 25.103 65.992C25.6923 66.096 26.1733 66.3473 26.546 66.746C26.936 67.1793 27.131 67.7037 27.131 68.319C27.131 69.0123 26.8147 69.58 26.182 70.022C26.5807 70.2127 26.9013 70.503 27.144 70.893C27.3953 71.283 27.521 71.712 27.521 72.18ZM33.3711 72.414C33.3711 72.102 33.2498 71.8507 33.0071 71.66C32.7731 71.4693 32.4698 71.374 32.0971 71.374H31.4991V73.454H32.0971C32.4698 73.454 32.7731 73.3587 33.0071 73.168C33.2498 72.9687 33.3711 72.7173 33.3711 72.414ZM34.6191 72.414C34.6191 73.1073 34.3721 73.662 33.8781 74.078C33.4188 74.468 32.8684 74.663 32.2271 74.663H30.1991V68.059H31.4991V70.178H32.2271C32.8684 70.178 33.4188 70.3687 33.8781 70.75C34.3721 71.1833 34.6191 71.738 34.6191 72.414ZM37.3491 74.663H36.0231V68.059H37.3491V74.663ZM44.633 72.609C44.633 72.349 44.5116 72.141 44.269 71.985C44.0263 71.8203 43.7446 71.738 43.424 71.738H41.565V73.441H43.424C43.7706 73.441 44.0566 73.3673 44.282 73.22C44.516 73.0727 44.633 72.869 44.633 72.609ZM44.269 69.892C44.269 69.4933 43.9873 69.294 43.424 69.294H41.565V70.568H43.424C43.658 70.568 43.8573 70.503 44.022 70.373C44.1866 70.243 44.269 70.0827 44.269 69.892ZM45.959 72.7C45.959 73.3673 45.6643 73.8787 45.075 74.234C44.6243 74.5287 44.074 74.676 43.424 74.676H40.252V68.059H43.424C43.9353 68.059 44.4033 68.1977 44.828 68.475C45.3306 68.7957 45.582 69.2377 45.582 69.801C45.582 70.373 45.309 70.7933 44.763 71.062C45.0836 71.2007 45.3566 71.4043 45.582 71.673C45.8333 71.9937 45.959 72.336 45.959 72.7ZM51.9695 70.633C51.9175 70.191 51.7659 69.8313 51.5145 69.554C51.2372 69.2507 50.8992 69.099 50.5005 69.099C50.0932 69.099 49.7509 69.2507 49.4735 69.554C49.2135 69.8313 49.0445 70.191 48.9665 70.633H51.9695ZM53.2825 71.777H48.9405C48.9752 72.3057 49.1269 72.7433 49.3955 73.09C49.6902 73.454 50.0715 73.636 50.5395 73.636C51.3889 73.636 51.8742 73.2373 51.9955 72.44H53.2435C53.1222 73.2373 52.8015 73.8483 52.2815 74.273C51.7875 74.663 51.1895 74.858 50.4875 74.858C50.0975 74.858 49.7205 74.7757 49.3565 74.611C48.9405 74.4377 48.6155 74.208 48.3815 73.922C48.1562 73.636 47.9742 73.233 47.8355 72.713C47.7229 72.271 47.6665 71.8377 47.6665 71.413C47.6665 70.4337 47.8789 69.6277 48.3035 68.995C48.8062 68.2583 49.5429 67.89 50.5135 67.89C51.4235 67.89 52.1342 68.2497 52.6455 68.969C53.0702 69.5757 53.2825 70.3427 53.2825 71.27V71.777ZM60.6796 72.687C60.6796 73.389 60.3546 73.9393 59.7046 74.338C59.176 74.6587 58.5823 74.819 57.9236 74.819C57.2303 74.819 56.628 74.6543 56.1166 74.325C55.4926 73.9263 55.1806 73.3673 55.1806 72.648V72.479H56.4676C56.4676 73.2937 56.9443 73.701 57.8976 73.701C58.279 73.701 58.6213 73.6057 58.9246 73.415C59.2453 73.207 59.4056 72.9557 59.4056 72.661C59.4056 72.245 59.137 71.972 58.5996 71.842C58.3656 71.7813 57.941 71.751 57.3256 71.751V70.685H57.6116C58.071 70.685 58.4436 70.62 58.7296 70.49C59.0503 70.3513 59.2106 70.1433 59.2106 69.866C59.2106 69.6147 59.085 69.411 58.8336 69.255C58.6083 69.1163 58.318 69.047 57.9626 69.047C57.1133 69.047 56.6713 69.463 56.6366 70.295H55.4276C55.4536 69.4717 55.731 68.852 56.2596 68.436C56.693 68.0893 57.265 67.916 57.9756 67.916C58.5996 67.916 59.1413 68.0547 59.6006 68.332C60.1553 68.6787 60.4326 69.19 60.4326 69.866C60.4326 70.386 60.1856 70.8063 59.6916 71.127C60.3503 71.4217 60.6796 71.9417 60.6796 72.687ZM66.8738 70.633C66.8218 70.191 66.6702 69.8313 66.4188 69.554C66.1415 69.2507 65.8035 69.099 65.4048 69.099C64.9975 69.099 64.6552 69.2507 64.3778 69.554C64.1178 69.8313 63.9488 70.191 63.8708 70.633H66.8738ZM68.1868 71.777H63.8448C63.8795 72.3057 64.0312 72.7433 64.2998 73.09C64.5945 73.454 64.9758 73.636 65.4438 73.636C66.2932 73.636 66.7785 73.2373 66.8998 72.44H68.1478C68.0265 73.2373 67.7058 73.8483 67.1858 74.273C66.6918 74.663 66.0938 74.858 65.3918 74.858C65.0018 74.858 64.6248 74.7757 64.2608 74.611C63.8448 74.4377 63.5198 74.208 63.2858 73.922C63.0605 73.636 62.8785 73.233 62.7398 72.713C62.6272 72.271 62.5708 71.8377 62.5708 71.413C62.5708 70.4337 62.7832 69.6277 63.2078 68.995C63.7105 68.2583 64.4472 67.89 65.4178 67.89C66.3278 67.89 67.0385 68.2497 67.5498 68.969C67.9745 69.5757 68.1868 70.3427 68.1868 71.27V71.777ZM77.2999 74.676H76.0259V70.75L74.5049 74.676H73.5169L71.9959 70.75V74.676H70.7219V68.059H72.2299L74.0109 72.544L75.7659 68.059H77.2999V74.676ZM40.7172 86.154C40.7172 85.2527 40.0889 84.802 38.8322 84.802H36.7392V87.376H38.7802C39.3609 87.376 39.7942 87.3153 40.0802 87.194C40.5049 87.012 40.7172 86.6653 40.7172 86.154ZM40.3402 82.371C40.3402 81.8857 40.1236 81.5563 39.6902 81.383C39.4302 81.279 39.0012 81.227 38.4032 81.227H36.7392V83.515H38.3252C38.9579 83.515 39.3999 83.4717 39.6512 83.385C40.1106 83.2117 40.3402 82.8737 40.3402 82.371ZM42.0952 86.18C42.0952 86.4313 42.0562 86.674 41.9782 86.908C41.9089 87.142 41.8092 87.3587 41.6792 87.558C41.5492 87.7573 41.3889 87.935 41.1982 88.091C41.0162 88.2557 40.8082 88.3813 40.5742 88.468C40.2622 88.6067 39.4562 88.676 38.1562 88.676H35.4002V79.927H38.5202C38.7802 79.927 39.0056 79.9357 39.1962 79.953C39.3956 79.9617 39.5559 79.9747 39.6772 79.992C40.2666 80.096 40.7476 80.3473 41.1202 80.746C41.5102 81.1793 41.7052 81.7037 41.7052 82.319C41.7052 83.0123 41.3889 83.58 40.7562 84.022C41.1549 84.2127 41.4756 84.503 41.7182 84.893C41.9696 85.283 42.0952 85.712 42.0952 86.18ZM47.9453 86.414C47.9453 86.102 47.824 85.8507 47.5813 85.66C47.3473 85.4693 47.044 85.374 46.6713 85.374H46.0733V87.454H46.6713C47.044 87.454 47.3473 87.3587 47.5813 87.168C47.824 86.9687 47.9453 86.7173 47.9453 86.414ZM49.1933 86.414C49.1933 87.1073 48.9463 87.662 48.4523 88.078C47.993 88.468 47.4427 88.663 46.8013 88.663H44.7733V82.059H46.0733V84.178H46.8013C47.4427 84.178 47.993 84.3687 48.4523 84.75C48.9463 85.1833 49.1933 85.738 49.1933 86.414ZM51.9233 88.663H50.5973V82.059H51.9233V88.663ZM59.8962 82.059L57.2052 84.854L59.8702 88.676H58.3882L56.3342 85.738L55.8142 86.232V88.676H54.5532V82.059H55.8142V84.581L58.2582 82.059H59.8962ZM66.4544 85.361C66.4544 84.7543 66.3027 84.2343 65.9994 83.801C65.67 83.333 65.241 83.099 64.7124 83.099C64.175 83.099 63.746 83.333 63.4254 83.801C63.122 84.2343 62.9704 84.7543 62.9704 85.361C62.9704 85.9763 63.1264 86.4963 63.4384 86.921C63.759 87.389 64.1837 87.623 64.7124 87.623C65.2324 87.623 65.657 87.389 65.9864 86.921C66.2984 86.4963 66.4544 85.9763 66.4544 85.361ZM67.7414 85.374C67.7414 86.3013 67.477 87.0943 66.9484 87.753C66.359 88.481 65.6137 88.845 64.7124 88.845C63.785 88.845 63.0354 88.4853 62.4634 87.766C61.9347 87.1073 61.6704 86.31 61.6704 85.374C61.6704 84.4467 61.9304 83.6493 62.4504 82.982C63.0224 82.254 63.7764 81.89 64.7124 81.89C65.6397 81.89 66.3894 82.2583 66.9614 82.995C67.4814 83.6623 67.7414 84.4553 67.7414 85.374ZM75.7234 88.676H74.4754V83.281H71.6284V88.676H70.3674V82.059H75.7234V88.676ZM84.2837 88.676C84.0757 88.6933 83.9067 88.7063 83.7767 88.715C83.6467 88.7323 83.5513 88.741 83.4907 88.741C82.9707 88.741 82.6457 88.4983 82.5157 88.013C81.831 88.5763 81.1333 88.858 80.4227 88.858C79.7813 88.858 79.257 88.6977 78.8497 88.377C78.3903 88.013 78.1607 87.5103 78.1607 86.869C78.1607 86.0803 78.503 85.4997 79.1877 85.127C79.699 84.8497 80.3837 84.6893 81.2417 84.646C81.4323 84.646 81.7053 84.607 82.0607 84.529C82.234 84.425 82.3207 84.295 82.3207 84.139C82.3207 83.4283 81.922 83.073 81.1247 83.073C80.1887 83.073 79.7163 83.489 79.7077 84.321H78.4467C78.4553 83.463 78.75 82.826 79.3307 82.41C79.7813 82.072 80.3793 81.903 81.1247 81.903C81.8267 81.903 82.3943 82.059 82.8277 82.371C83.3303 82.735 83.5817 83.2897 83.5817 84.035V87.311C83.5817 87.4757 83.6337 87.584 83.7377 87.636C83.7983 87.662 83.9803 87.675 84.2837 87.675V88.676ZM82.3207 85.569C81.9393 85.621 81.337 85.712 80.5137 85.842C79.7943 85.9893 79.4347 86.3143 79.4347 86.817C79.4347 87.0683 79.5343 87.272 79.7337 87.428C79.933 87.584 80.193 87.662 80.5137 87.662C81.0337 87.662 81.4627 87.519 81.8007 87.233C82.1473 86.947 82.3207 86.5613 82.3207 86.076V85.569ZM90.0428 84.633C89.9908 84.191 89.8391 83.8313 89.5878 83.554C89.3104 83.2507 88.9724 83.099 88.5738 83.099C88.1664 83.099 87.8241 83.2507 87.5468 83.554C87.2868 83.8313 87.1178 84.191 87.0398 84.633H90.0428ZM91.3558 85.777H87.0138C87.0484 86.3057 87.2001 86.7433 87.4688 87.09C87.7634 87.454 88.1448 87.636 88.6128 87.636C89.4621 87.636 89.9474 87.2373 90.0688 86.44H91.3168C91.1954 87.2373 90.8748 87.8483 90.3548 88.273C89.8608 88.663 89.2628 88.858 88.5608 88.858C88.1708 88.858 87.7938 88.7757 87.4298 88.611C87.0138 88.4377 86.6888 88.208 86.4548 87.922C86.2294 87.636 86.0474 87.233 85.9088 86.713C85.7961 86.271 85.7398 85.8377 85.7398 85.413C85.7398 84.4337 85.9521 83.6277 86.3768 82.995C86.8794 82.2583 87.6161 81.89 88.5868 81.89C89.4968 81.89 90.2074 82.2497 90.7188 82.969C91.1434 83.5757 91.3558 84.3427 91.3558 85.27V85.777ZM100.469 88.676H99.1949V84.75L97.6739 88.676H96.6859L95.1649 84.75V88.676H93.8909V82.059H95.3989L97.1799 86.544L98.9349 82.059H100.469V88.676Z" fill="black"/>
<circle cx="102.5" cy="13.5" r="10.5" fill="#143067"/>
</svg>
